<?xml version="1.0" encoding="UTF-8" standalone="no"?>
<!DOCTYPE svg PUBLIC "-//W3C//DTD SVG 1.1//EN" "http://www.w3.org/Graphics/SVG/1.1/DTD/svg11.dtd">
<svg width="100%" height="100%" viewBox="0 0 512 512" version="1.1" xmlns="http://www.w3.org/2000/svg" xmlns:xlink="http://www.w3.org/1999/xlink" xml:space="preserve" xmlns:serif="http://www.serif.com/" style="fill-rule:evenodd;clip-rule:evenodd;stroke-linejoin:round;stroke-miterlimit:1.41421;">
    <g>
        <g transform="matrix(1.0578,0,0,1.06423,36.3486,-10.9439)">
            <rect x="27.857" y="73.76" width="343.566" height="395.035" style="fill:rgb(248,248,247);"/>
        </g>
        <path d="M416,32L272,32C272,40.836 264.836,48 256,48C247.164,48 240,40.836 240,32L96,32C73.945,32 56,49.945 56,72L56,472C56,494.055 73.945,512 96,512L416,512C438.055,512 456,494.055 456,472L456,72C456,49.945 438.054,32 416,32ZM416,464C416,468.418 412.418,472 408,472L104,472C99.582,472 96,468.418 96,464L96,80C96,75.582 99.582,72 104,72L408,72C412.418,72 416,75.582 416,80L416,464Z" style="fill:rgb(159,100,89);fill-rule:nonzero;"/>
        <path d="M152,368C150.109,368 148.211,367.336 146.688,365.977C143.383,363.047 143.086,357.985 146.024,354.688L210.024,282.688C212.352,280.063 216.118,279.266 219.313,280.719L299.758,317.289L352.602,188.953C354.29,184.875 358.961,182.953 363.047,184.601C367.133,186.281 369.078,190.96 367.399,195.046L311.399,331.046C310.571,333.054 308.961,334.64 306.946,335.437C304.931,336.234 302.673,336.179 300.688,335.281L218.063,297.726L157.977,365.312C156.398,367.094 154.203,368 152,368Z" style="fill:rgb(216,220,225);fill-rule:nonzero;"/>
        <circle cx="152" cy="360" r="24" style="fill:rgb(255,79,25);"/>
        <circle cx="216" cy="288" r="24" style="fill:rgb(255,150,0);"/>
        <circle cx="304" cy="328" r="24" style="fill:rgb(255,210,0);"/>
        <circle cx="360" cy="192" r="24" style="fill:rgb(116,210,79);"/>
        <path d="M304,16L283.609,16C277.969,6.242 267.484,0 256,0C244.516,0 234.031,6.242 228.391,16L208,16C185.945,16 168,33.945 168,56L168,88C168,92.418 171.578,96 176,96L336,96C340.422,96 344,92.418 344,88L344,56C344,33.945 326.055,16 304,16ZM256,40C251.582,40 248,36.418 248,32C248,27.582 251.582,24 256,24C260.418,24 264,27.582 264,32C264,36.418 260.418,40 256,40Z" style="fill:rgb(185,187,193);fill-rule:nonzero;"/>
    </g>
</svg>
